<svg width="24" height="24" viewBox="-7 -7 44 44" fill="none" xmlns="http://www.w3.org/2000/svg">    
  <path d="M24.584,25.858C22.033,28.059 18.713,29.389 15.084,29.389C11.455,29.389 8.153,28.066 5.604,25.874L15.103,16.348L24.584,25.857L24.584,25.858Z" style="fill:rgb(43,126,33);fill-rule:nonzero;"/>
  <path d="M15.083,0.15C7.034,0.15 0.508,6.696 0.508,14.77C0.508,17.64 1.332,20.316 2.756,22.573C3.146,23.193 3.582,23.781 4.06,24.334L5.625,22.764L15.103,13.259L26.125,24.314C26.601,23.76 27.036,23.171 27.426,22.55C28.841,20.297 29.66,17.629 29.66,14.77C29.66,6.696 23.134,0.15 15.083,0.15ZM25.888,20.199L25.755,20.467L15.103,9.783L4.426,20.491L4.292,20.225C3.448,18.545 3.002,16.659 3.002,14.77C3.002,8.088 8.422,2.652 15.084,2.652C21.747,2.652 27.167,8.088 27.167,14.77C27.167,16.649 26.725,18.527 25.889,20.2L25.888,20.199Z" style="fill:rgb(43,126,33);fill-rule:nonzero;"/>
</svg>
